<?xml version="1.0" encoding="utf-8"?>
<!-- Generator: Adobe Illustrator 27.6.1, SVG Export Plug-In . SVG Version: 6.00 Build 0)  -->
<svg version="1.0" id="Livello_1" xmlns="http://www.w3.org/2000/svg" xmlns:xlink="http://www.w3.org/1999/xlink" x="0px" y="0px"
	 viewBox="0 0 190 196.91" style="enable-background:new 0 0 190 196.91;" xml:space="preserve">
<style type="text/css">
	.st0{clip-path:url(#SVGID_00000132084405495223467510000009327630481901622191_);}
	.st1{fill:#B1FF42;}
</style>
<g>
	<circle cx="95" cy="98.46" r="95"/>
	<g>
		<defs>
			<circle id="SVGID_1_" cx="95" cy="98.46" r="95"/>
		</defs>
		<clipPath id="SVGID_00000067914743337179741990000003160469867035262884_">
			<use xlink:href="#SVGID_1_"  style="overflow:visible;"/>
		</clipPath>
		<g style="clip-path:url(#SVGID_00000067914743337179741990000003160469867035262884_);">
			<path class="st1" d="M129.91,98.46c0,7.81,0.01,15.62-0.01,23.43c-0.01,2.72-0.31,3.01-3.01,3.03c-2.73,0.02-5.46,0.02-8.19,0
				c-3-0.02-3.4-0.42-3.41-3.45c-0.01-14.64-0.05-29.27,0.02-43.91c0.03-5.95-2.03-10.74-7.39-13.6
				c-8.7-4.65-20.21,0.59-20.75,11.87c-0.21,4.31-0.11,8.65,0,12.97c0.1,3.82,0.09,7.79-1.19,11.25
				c-2.44,6.61-6.08,12.63-11.88,17.06c-6.82,5.2-14.58,7.67-23.04,7.81c-9.63,0.16-19.26,0.05-28.9,0.04
				c-3.06,0-3.34-0.31-3.35-3.42c-0.01-2.81-0.01-5.61,0-8.42c0.01-2.97,0.23-3.19,3.29-3.19c9.25-0.01,18.51,0.01,27.76-0.01
				c13.56-0.02,22.48-8.89,22.64-22.49c0.07-5.98-0.36-11.99,0.87-17.9c2.08-10.03,12.06-19.15,22.07-21.22
				c12.69-2.62,24.74,3.66,30.35,13.39c2.54,4.4,4.08,9.13,4.12,14.25c0.06,7.51,0.01,15.02,0.01,22.52
				C129.92,98.46,129.92,98.46,129.91,98.46z"/>
			<path class="st1" d="M18.82,75.67c0-0.08,0-0.16,0-0.24c0.02-15.48,12.8-27.99,28.28-27.82c1.56,0.02,2.98,0.04,4.2,0.08
				c7.52,0.21,14.63,2.26,21.02,6.44c1.51,0.99,2.07,1.93,0.86,3.64c-2.21,3.12-3.76,6.58-4.64,10.31c-0.39,1.65-1.1,1.92-2.28,0.75
				c-4.84-4.78-10.73-6.52-17.42-6.25l0,0c-8.04,0.32-14.57,7.17-14.56,15.21c0.01,7.45-0.01,14.9-0.01,22.36
				c0,3.33-0.15,3.47-3.46,3.47c-3.03,0.01-6.07-0.09-9.1,0.03c-2.19,0.08-2.95-0.81-2.93-2.94c0.07-8.34,0.03-16.68,0.03-25.02
				C18.81,75.67,18.82,75.67,18.82,75.67z"/>
			<path class="st1" d="M172.64,98.71c0,7.58,0.01,15.17,0,22.75c0,3.18-0.28,3.45-3.54,3.47c-2.5,0.02-5.01,0.01-7.51,0
				c-3.24-0.02-3.52-0.28-3.53-3.5c-0.01-15.01,0-30.03,0-45.04c0-5.6-2.52-9.89-7.42-12.39c-5.05-2.58-10.28-2.42-15.02,0.98
				c-1.7,1.22-2.38,0.99-3.1-0.87c-1.2-3.11-2.59-6.17-4.81-8.72c-1.09-1.25-0.83-2.17,0.43-2.97c6.18-3.9,12.82-5.53,20.16-4.38
				c7.86,1.23,13.99,5.15,18.69,11.41c3.7,4.93,5.53,10.6,5.62,16.74C172.72,83.7,172.64,91.21,172.64,98.71z"/>
		</g>
	</g>
	<g>
		<path class="st1" d="M58.79,151.79V132.2h4.77v19.72c0,3.49,1.82,5.23,5.47,5.23h8.51v4.56h-8.37
			C62.53,161.72,58.79,158.09,58.79,151.79z"/>
		<path class="st1" d="M103.7,142.66v19.05h-4.77v-12.52H83.3v-4.52h15.63v-1.97c0-3.53-2.9-6.44-6.55-6.44
			c-3.65,0-6.55,2.91-6.55,6.44v19.01h-4.77v-19.05c0-6.08,5-10.91,11.31-10.91C98.69,131.75,103.7,136.58,103.7,142.66z"/>
		<path class="st1" d="M108.39,161.72V132.2h12.25c4.91,0,8.7,3.89,8.7,8.54c0,2.06-0.75,3.89-2.01,5.37
			c2.34,1.52,3.88,4.12,3.88,7.02c0,4.7-3.79,8.59-8.7,8.59H108.39z M110.69,149.19v-4.52h9.9c2.2,0,3.98-1.88,3.98-4.02
			c0-2.19-1.78-3.94-3.93-3.94h-7.48v20.48h9.35c2.15,0,3.93-1.74,3.93-3.94s-1.78-4.07-3.98-4.07H110.69z"/>
	</g>
</g>
</svg>
