<?xml version="1.0" encoding="utf-8"?>
<!-- Generator: Adobe Illustrator 27.6.1, SVG Export Plug-In . SVG Version: 6.00 Build 0)  -->
<svg version="1.1" id="Livello_1" xmlns="http://www.w3.org/2000/svg" xmlns:xlink="http://www.w3.org/1999/xlink" x="0px" y="0px"
	 viewBox="0 0 109.9 133.4" style="enable-background:new 0 0 109.9 133.4;" xml:space="preserve">
<style type="text/css">
	.st0{fill:#FFFFFF;}
</style>
<g>
	<path class="st0" d="M73.7,38.1c0,8.7,0,17.4,0,26.1c0,1,0.4,1.2,1.2,1.2c2,0,4,0,6,0c5.6,0,11.1,0,16.7,0c4.3,0.1,7.6,2.1,10,5.5
		c2.2,3.1,2.9,6.7,1.8,10.3c-1.3,4.6-4.3,7.7-9,9.1c-1.4,0.4-2.9,0.4-4.4,0.6c-1.8,0.2-3.6,0.7-5.4,0.9c-3,0.5-5.9,1.2-8.8,2
		c-2.5,0.7-5,1.6-7.5,2.4c-0.6,0.2-0.7,0.6-0.7,1.2c0,2.1,0,4.2,0,6.3c0,8.2,0,16.4,0,24.6c0,3.3-2,4.8-4.8,4.8
		c-13.6,0-27.1,0-40.7,0c-3.1,0-5-1.9-5-4.9c0.1-5.4,0-10.9,0.1-16.3c0-0.8-0.3-1.1-1-1.5c-6.6-3-11.9-7.4-15.9-13.5
		C3.8,93.4,2,89.4,0.9,85C0.3,82.2,0,79.4,0,76.5c0-10.1,0-20.2,0-30.3c0-5.1,3.8-9.5,8.3-11c3.4-1.1,6.6-0.8,9.7,1
		c0.5,0.3,1,0.3,1.6-0.3c2.8-2.9,6.3-4.4,10.4-3.9c1.7,0.2,3.2,0.8,4.7,1.6c0.4,0.2,0.7,0.4,1.2-0.1c3.5-3.7,7.8-5,12.8-3.7
		c1,0.3,0.7-0.5,0.7-0.8c0-4.4,0-8.8,0-13.2c0-2.1-0.2-4.3,0.2-6.4c0.6-3.3,2.4-5.9,5.2-7.8C57.8-0.3,61-0.8,64.4,0
		c3.4,0.8,6,2.8,7.8,5.9c1.2,2.1,1.5,4.3,1.5,6.6C73.7,21.1,73.7,29.6,73.7,38.1C73.7,38.1,73.7,38.1,73.7,38.1z M65.8,40.7
		c0-9.6,0-19.3,0-28.9c0-2.4-1.9-4.3-4.3-4.4c-2.1-0.1-4.3,2.2-4.3,4.3c0,17.1,0,34.2,0,51.4c0,1.1-0.1,2.1-0.3,3.2
		c-0.7,3.3-2.8,5.8-5.6,7.7c-2.1,1.5-4.6,2.1-7.1,1.9c-2.6-0.2-4.9-1.2-6.9-2.9c-0.4-0.4-0.7-0.3-1.1,0c-0.8,0.6-1.7,1.3-2.7,1.7
		c-4.5,2-8.7,1.4-12.5-1.5c-0.6-0.5-1-0.4-1.5,0c-1.3,1-2.8,1.8-4.5,2.2c-2,0.5-4,0.5-6,0c-1.4-0.4-1.4-0.3-1.3,1
		c0.1,1.7,0.2,3.4,0.5,5.1c0.4,2.6,1.2,5.1,2.3,7.5c1.5,3.5,3.8,6.4,6.5,9c3.1,2.9,6.5,5.1,10.5,6.4c2.5,0.8,3.6,2.1,3.6,4.6
		c0,5.1,0,10.2,0,15.2c0,0.9,0.2,1.1,1.1,1.1c10.8,0,21.5,0,32.3,0c1,0,1.3-0.2,1.3-1.3c0-10,0-20,0-30c0-1.6,0.6-2.8,2-3.5
		c1.4-0.8,3-1.2,4.6-1.8c4.3-1.8,8.9-2.9,13.4-4c3.8-1,7.8-1.4,11.7-1.9c2.9-0.4,4.4-2.1,4.5-4.9c0.1-2.3-2.3-4.8-4.7-4.7
		c-2.3,0.2-4.7,0-7.1,0c-6.5,0-13,0-19.5,0c-3.1,0-4.9-1.8-4.9-4.9C65.8,59.3,65.8,50,65.8,40.7z M40.9,52.6
		C40.9,52.6,40.9,52.6,40.9,52.6c0,3.8,0,7.7,0,11.5c0,0.3,0,0.7,0.1,1c0.9,2.2,2.8,3.2,5.2,2.7c1.7-0.3,3.2-2.1,3.2-4.3
		c0-7.2,0-14.4,0-21.6c0-2.4-1.4-4.2-3.6-4.7c-2.2-0.4-5,1.5-5,3.8C41,44.9,40.9,48.7,40.9,52.6z M32.8,53.8c0-3.4,0-6.7,0-10.1
		c0-2.3-2.5-4.3-4.9-3.9c-2.7,0.5-3.8,2.3-3.8,4.8c-0.1,5.9,0,11.8,0,17.6c0,0.9,0.1,1.8,0.4,2.6c0.7,2.1,2.5,3.2,5.1,2.8
		c1.6-0.2,3.3-2,3.2-3.9C32.8,60.5,32.8,57.1,32.8,53.8z M16.4,55.2c0-2.7,0-5.4,0-8.1c0-0.8-0.1-1.5-0.4-2.2
		c-0.6-1.4-1.9-2.4-3.5-2.5c-1.9-0.1-3.3,0.5-4.2,2.1c-0.6,1.1-0.6,2.3-0.5,3.5c0,5.3,0.1,10.6,0.1,15.9c0,1.8,1.7,4,4.3,3.9
		c2.3,0,4.2-1.9,4.2-4.2C16.4,60.9,16.4,58.1,16.4,55.2z"/>
</g>
</svg>
