<?xml version="1.0" encoding="utf-8"?>
<!-- Generator: Adobe Illustrator 27.6.1, SVG Export Plug-In . SVG Version: 6.00 Build 0)  -->
<svg version="1.0" id="Livello_1" xmlns="http://www.w3.org/2000/svg" xmlns:xlink="http://www.w3.org/1999/xlink" x="0px" y="0px"
	 viewBox="0 0 156 20.04" style="enable-background:new 0 0 156 20.04;" xml:space="preserve">
<style type="text/css">
	.st0{fill:#7F858F;}
	.st1{fill:#B1FF42;}
</style>
<g>
	<path class="st0" d="M0,16.45l2.22-1.87c1.25,1.58,3.09,2.6,5.31,2.6c2.33,0,3.79-1.02,3.79-2.66c0-4.41-10.47-2.28-10.47-8.93
		C0.85,2.04,3.71,0,7.35,0c2.63,0,4.87,1.14,6.39,3l-2.22,1.87C10.5,3.65,9.04,2.86,7.26,2.86c-2.1,0-3.44,0.99-3.44,2.45
		c0,4.17,10.47,1.95,10.47,8.99c0,3.76-2.98,5.75-6.83,5.75C4.41,20.04,1.75,18.67,0,16.45z"/>
	<path class="st0" d="M28.18,0.29v2.98h-5.31c-2.28,0-3.41,1.14-3.41,3.41v1.75h8.72v2.98h-8.72v1.75c0,2.28,1.14,3.41,3.41,3.41
		h5.31v2.98h-5.22c-4.14,0-6.48-2.36-6.48-6.48v-6.3c0-4.11,2.33-6.48,6.48-6.48H28.18z"/>
	<path class="st1" d="M33.35,6.56v12.98h-2.98V6.54c0-3.65,2.86-6.54,6.45-6.54c2.01,0,3.79,0.9,4.96,2.33
		C42.95,0.9,44.73,0,46.74,0c3.59,0,6.45,2.89,6.45,6.54v13.01h-2.98V6.56c0-1.98-1.55-3.62-3.44-3.62c-1.96,0-3.5,1.63-3.5,3.62
		v12.98h-2.98V6.56c0-1.98-1.55-3.62-3.44-3.62C34.89,2.95,33.35,4.58,33.35,6.56z"/>
	<path class="st0" d="M69.93,7.12v12.43h-2.98v-8.17h-6.48V8.43h6.48V7.15c0-2.3-1.81-4.2-4.08-4.2c-2.28,0-4.08,1.9-4.08,4.2v12.4
		h-2.98V7.12c0-3.97,3.12-7.12,7.06-7.12S69.93,3.15,69.93,7.12z"/>
	<path class="st0" d="M77.52,10.33h2.36c2.16,0,3.88-1.72,3.88-3.73c0-2.04-1.75-3.65-3.85-3.65c-2.28,0-4.08,1.9-4.08,4.2v12.4
		h-2.98V7.12c0-3.97,3.12-7.12,7.06-7.12c3.85,0,6.83,3.03,6.83,6.65c0,3.68-3.12,6.62-6.8,6.62h-2.42V10.33z"/>
	<path class="st0" d="M92.28,0.29v8.14h8.37V0.29h2.98v19.26h-2.98v-8.14h-8.37v8.14h-2.98V0.29H92.28z"/>
	<path class="st0" d="M115.97,0c5.43,0,9.69,4.38,9.69,10.01c0,5.6-4.26,10.04-9.69,10.04c-5.43,0-9.69-4.43-9.69-10.04
		C106.29,4.38,110.55,0,115.97,0z M115.97,17.18c3.68,0,6.68-3.21,6.68-7.15c0-3.97-3-7.18-6.68-7.18c-3.71,0-6.68,3.21-6.68,7.18
		C109.29,13.97,112.27,17.18,115.97,17.18z"/>
	<path class="st0" d="M132.98,8.14h2.92c1.37,0,2.45-1.17,2.45-2.45c0-1.37-1.23-2.45-2.66-2.45h-4.41v16.31h-2.98V0.29h7.41
		c3.15,0,5.6,2.48,5.6,5.34c0,1.46-0.64,2.77-1.72,3.79c1.37,0.88,2.13,2.28,2.13,4.23v5.89h-2.98v-5.81c0-1.84-0.85-2.66-2.51-2.66
		h-3.27V8.14z"/>
	<path class="st0" d="M156,0.29v2.98h-5.31c-2.28,0-3.41,1.14-3.41,3.41v1.75H156v2.98h-8.72v1.75c0,2.28,1.14,3.41,3.41,3.41H156
		v2.98h-5.22c-4.14,0-6.48-2.36-6.48-6.48v-6.3c0-4.11,2.33-6.48,6.48-6.48H156z"/>
</g>
</svg>
