<?xml version="1.0" encoding="utf-8"?>
<!-- Generator: Adobe Illustrator 27.6.1, SVG Export Plug-In . SVG Version: 6.00 Build 0)  -->
<svg version="1.1" id="Livello_1" xmlns="http://www.w3.org/2000/svg" xmlns:xlink="http://www.w3.org/1999/xlink" x="0px" y="0px"
	 viewBox="0 0 288.6 601.7" style="enable-background:new 0 0 288.6 601.7;" xml:space="preserve">
<style type="text/css">
	.st0{fill:#DA3832;}
	.st1{fill:#FDDF4F;}
	.st2{fill:#00A259;}
	.st3{fill:none;stroke:#E6E7E8;stroke-width:2;stroke-linecap:round;stroke-linejoin:round;stroke-miterlimit:10;}
</style>
<g id="Livello_1">
	<g>
		<path class="st0" id="led2" d="M182.5,63.7c0,0-25.9,61.1,21.5,91.2c0,0,13.8-7,22.5-5C226.4,149.9,236.9,96.8,182.5,63.7z"/>
		<path class="st1" id="led1" d="M181,192.6c0,0-25.9,61.1,21.5,91.2c0,0,13.8-7,22.5-5C224.9,278.8,235.4,225.7,181,192.6z"/>
		<path class="st2" id="led0" d="M182.5,321.5c0,0-25.9,61.1,21.5,91.2c0,0,11.9,4.7,19.5,1.5c0,0,6-11,4.4-23
			C224.5,366.4,213.1,340.2,182.5,321.5z"/>
		<g>
			<path class="st3" d="M143.8,163.1c0.3,3.1,2.3,5.3,4.2,7.5"/>
			<path class="st3" d="M146,144.9c-0.8-0.6-1.2-2.3-2.8-1c1.3,1.4,3.3,1.7,4.8,0.8c1.3-0.8,2.1-3.2,1.2-5c-0.7-1.5-1.8-2.9-3-4
				c-1.1-1-2.5-1.2-4-0.3c-1.7,1-2.5,2.5-1.9,4.3c0.6,1.6,1.8,3,2.7,4.5"/>
			<path class="st3" d="M143.8,292c0.4,2.9,2,5.2,4,7.2"/>
			<path class="st3" d="M138.3,28.2c0.2,0.8,0.5,1.7,0.5,2.5c0,35.5,0.1,70.9,0,106.4c0,4.6,1.6,7.6,5.7,9.8
				c7.9,4.3,15.5,9.1,23.3,13.6c4,2.3,8,4.5,12,6.8c0.5,0.3,0.8,0.7,1.3,1"/>
			<path class="st3" d="M237.4,281.3c5.3,2.5,10.2,5.3,14.5,9.5c5.6,5.4,9.9,11.7,13.2,18.8c3.1,6.6,5,13.6,6.3,20.7
				c1,5.6,1.2,11.3,1.3,17c0,8.8-1.2,17.5-3.5,26c-4.3,15.5-11.7,29.1-24,39.7c-1.4,1.2-3,2.3-4.5,3.5"/>
			<path class="st3" d="M135.5,409.4c-4.9-2.5-9.8-2.4-14.7,0"/>
			<path class="st3" d="M136.5,409.9c6.2,3.6,12.5,7.2,18.7,10.7c7,4,14,8,21,12c6.8,4,13.6,8,20.5,12c7,4,14,8,21,12
				c5.8,3.4,11.7,6.8,17.5,10.2c0.6,0.4,1.3,0.7,2,1"/>
			<path class="st3" d="M183.7,263.3c1.2,0.7,2.3,1.5,3.5,2.3c3.6,2.4,7.3,4.6,11.7,5.3c9,1.4,13.9-4.5,15.3-12
				c1.4-7.7-0.4-15-3.3-22c-3.9-9.3-9.6-17.4-18.2-23.2c-4.6-3.2-9.6-5.5-15.5-4.5"/>
			<path class="st3" d="M141.5,265.8c-0.2,2.7,1.7,4.7,2.5,7"/>
			<path class="st3" d="M136.3,273.5c0,3.8,0,7.7,0,11.5"/>
			<path class="st3" d="M138.3,157.6c0.2,0.8,0.5,1.7,0.5,2.5c0,35.5,0.1,70.9-0.1,106.4c0,5.5,3.1,8,7.1,10.2c11,6.3,22,12.6,33,19
				c0.8,0.4,1.5,1,2.3,1.5"/>
			<path class="st3" d="M178.5,41.2c-5.4-3.2-10.8-6.5-16.2-9.7c-6.9-4-13.8-8-20.7-12c-3.3-1.9-6.4-4.2-10.2-4.8
				c-3.6-0.6-7.2-0.4-10.5,1.5C113.9,20.1,107,24,100.1,28C92,32.7,84,37.5,75.9,42.2c-8,4.6-16.2,9.1-24.2,13.8
				C42.8,61.1,34,66.3,25.2,71.4c-2.4,1.4-4.7,2.8-7,4.2c-1.7,1-2.5,2.5-2.2,4.5c0,0.2,0,0.3,0,0.5c0,128.7,0,257.5,0,386.2
				c0,1,0.3,2,0.5,3"/>
			<path class="st3" d="M141.5,136.4c0.3,2.5,0.6,4.9,2.5,6.7"/>
			<path class="st3" d="M177.2,79.9c7.9-0.6,14.2,2.9,19.7,8c8.8,8.1,14.3,18.1,17,29.7c1.3,5.5,1.5,11.3-0.9,16.4
				c-3.7,8.2-10.8,9.8-19.6,6.2c-2.8-1.2-5.2-3.3-7.8-4.9c-0.6-0.4-1.3-0.7-2-1"/>
			<path class="st3" d="M136.3,144.6c0,3.8,0,7.7,0,11.5"/>
			<path class="st3" d="M194.2,33c-1.7,0.7-3.4,1.4-5,2.3c-11,6.4-22,12.8-33,19.2c-7.4,4.3-10.8,11.1-12.4,19
				c-2.9,14.5-0.1,28.4,5.2,42c4,10.4,9.5,19.9,16.3,28.7c5.9,7.7,12.9,14.3,20.9,19.8c0.4,0.3,0.8,0.7,1.3,1"/>
			<path class="st3" d="M119.8,409.9c-9.2,5.2-18.3,10.5-27.5,15.7c-10.1,5.9-20.1,11.9-30.2,17.7c-8,4.7-16.2,9.1-24.2,13.8
				c-6.6,3.8-13.1,7.8-19.7,11.7c-1.8,1.1-2.3,2.5-2.3,4.5c0.1,11,0,22,0,33c0,4.3,0,8.7,0,13c0,0.7,0.3,1.3,0.5,2"/>
			<path class="st3" d="M138.3,139.4c-0.6,0.3-1.2,0.7-1.7,1"/>
			<path class="st3" d="M237.4,458.9c2.4-0.6,3.1-2.1,3-4.5c-0.1-11.6-0.1-23.1-0.1-34.7c0-0.8,0-1.7,0-3c-1.7,1-3,1.7-4.2,2.5
				c-5.1,3.3-10.9,4.3-16.7,4.7c-11.4,0.8-21.2-3.3-29.4-11c-11.2-10.4-17.1-23.6-19.7-38.5c-1-5.8-1.7-11.6-1.7-17.5
				c-0.2-13.5,2.4-26.5,7.7-39c4.3-10,10.2-18.8,18.1-26.3c6.8-6.4,14.7-10.3,23.8-12c5.5-1,10.9-0.7,16.2,0.8
				c1.3,0.4,2.4,0.4,3.8-0.6c13.1-9.1,20.3-22.1,24.9-36.8c3.1-9.9,4.1-20.2,3.5-30.5c-0.9-13.4-4.4-26.1-12.5-37.2
				c-5.4-7.4-12.2-13-21.2-15.5c-11.7-3.2-22.2-0.3-31.7,6.8c-8.8,6.6-14.9,15.2-19.1,25.4c-2,4.7-3.9,9.4-5,14.3
				c-2.3,9.9-3,19.8-1.9,30c0.9,8.3,2.9,16.2,6.5,23.8c4,8.5,9.3,15.8,17.3,20.9c1.7,1.1,3.6,2,5.5,3"/>
			<path class="st3" d="M136.3,17c0,3.4,0,6.8,0,10.2"/>
			<path class="st3" d="M173.5,302c-4.8-2.9-9.6-5.9-14.5-8.7c-5.1-3-10.3-6.1-15.5-9c-1-0.6-2.4-0.9-3.5-0.7
				c-1.7,0.3-1.3,2.2-1.5,3.4c-0.2,1.3,0.2,2.7,0.2,4c0,34.7,0.1,69.4-0.1,104.2c0,3.8,1.3,6.5,3.9,8.8c0.9-0.5,1.7-0.9,2.4-1.3"/>
			<path class="st3" d="M229.4,443.1c0.4,3.1,2,5.5,4,7.7"/>
			<path class="st3" d="M146,289.3c-2.8,1.6-3.8,3.3-3.2,5.5c0.7,3.1,3,4.9,6,5c1.7,0,2.8-1,3-2.7c0.3-2.9-2.3-7.1-5.5-7.7"/>
			<path class="st3" d="M182.5,321.5c8.6,4.1,15.7,10.1,22,17.2c9.7,11,16.5,23.5,20.6,37.5c2.7,9.3,4,18.8,1.8,28.4
				c-0.8,3.3-2.3,6.3-3.4,9.5"/>
			<path class="st3" d="M143.5,404.2c3.7,2.2,7.5,4.5,11.2,6.7c8.1,4.7,16.1,9.3,24.2,14c9.2,5.3,18.5,10.6,27.7,16
				c9.7,5.6,19.4,11.4,29.2,16.9c1.5,0.8,1.4,1.8,1.5,3.1c0,2.8,0,5.7,0,8.5c0,16.1,0,32.1,0,48.2c0,0.5-0.2,1-0.2,1.5"/>
			<path class="st3" d="M120.1,17.2c0.1,0.8,0.2,1.7,0.2,2.5c0,128.9,0,257.8,0,386.7c0,17.2,0,34.3,0,51.5c0,0.8,0,1.7,0,2.3
				c3.1-0.4,5.9-0.8,8.7-1c2.7-0.2,5.2,0.7,7.5,2c13.3,7.6,26.5,15.3,39.7,23c11.9,7,23.8,14,35.7,21c8.2,4.8,16.5,9.3,24.7,14
				c1.3,0.7,2.3,1.8,3.5,2.7"/>
			<path class="st3" d="M18.7,469.1c0.1,0.9,0.2,1.8,0.2,2.7c0,14.8,0,29.6,0,44.5c0,0.9,0.2,1.8,0.2,2.7"/>
			<path class="st3" d="M236.9,152.1c-3.7-0.7-7.3-2.1-11-2.1c-4.6,0-9.3,0.6-13.7,2.1c-6,2-11.2,5.5-16.5,8.8c-2.4,1.5-5,2.6-7.5,4
				c-8.2,4.7-16.3,9.5-24.5,14.2c-2.5,1.4-5,2.8-7.5,4.3c-7.2,4.3-10.8,11.1-12.5,19c-3.1,15,0,29.4,5.6,43.2
				c5.8,14.3,14,27.3,25.4,38c3.9,3.6,8.3,6.7,12.4,10"/>
			<path class="st3" d="M194.5,162.1c-1.8,2.1-3.7,4.1-5.5,6.2c-9.6,11.3-15.2,24.3-18.3,38.7c-1.4,6.4-2.1,13-2.1,19.5
				c-0.1,11.8,1.7,23.4,6.1,34.5c4.5,11.3,11.4,20.5,21,27.7"/>
			<path class="st3" d="M237.4,152.4c12.6,5.1,21,14.6,26.9,26.5c4.4,8.9,7.1,18.5,7.7,28.5c0.4,5.6,0.8,11.2,0.4,16.7
				c-0.5,6.1-1.5,12.2-2.9,18.2c-2.9,12.4-8.1,23.7-16.4,33.5c-2.7,3.1-5.8,5.9-8.7,8.8"/>
			<path class="st3" d="M182.5,63.7c9.2,4.1,16.5,10.7,23,18.2c8.1,9.4,14.1,19.9,18.1,31.5c3.4,9.8,5.4,19.9,3.8,30.4
				c-0.3,2-0.7,4-1,6"/>
			<path class="st3" d="M237.1,151.6c14.8-10.1,22.7-24.6,27-41.5c2.2-8.6,3-17.4,2.4-26.2c-1-14.9-5-28.8-14.9-40.5
				c-6-7.1-13.4-11.8-22.5-13.4c-9.4-1.6-18.1,0.9-25.9,6.2c-7.9,5.3-13.7,12.4-18.3,20.7c-3.6,6.6-6.3,13.5-8,20.7
				c-2.3,9.8-2.9,19.7-1.8,29.7c0.8,8,2.7,15.7,6.1,23c4.2,8.9,9.6,16.7,18.2,22c1.5,0.9,3,1.7,4.5,2.5"/>
			<path class="st3" d="M148.3,170.8c1.3-0.3,3.2-0.2,3.4-1.8c0.2-1.8-0.5-3.7-0.9-5.5c-0.2-0.6-1-1-1.4-1.5
				c-1.1-1.2-2.5-2.4-3.9-1.6c-1.6,0.8-2.8,2.4-2.6,4.6c0.3,2.7,2.7,5.5,5.3,5.7"/>
			<path class="st3" d="M144,273c1.3,1,2.9,1.5,4.2,0.7c1.6-1,1.7-2.8,1-4.4c-0.6-1.5-1.5-3-2.5-4.2c-1-1.3-2.7-1.8-4.2-1
				c-2.2,1.2-2.8,2.9-2,4.9c0.6,1.6,1,3.6,3.2,4"/>
			<path class="st3" d="M194.9,290.3c-2.5,1.2-5.1,2.4-7.5,3.8c-7,4-14,8.1-21,12.2c-3.6,2.1-7.2,4-10.7,6.3
				c-6.2,3.9-9.8,9.7-11.5,16.7c-3.5,14-1.2,27.6,3.5,40.9c5.8,16.5,15,30.9,27.7,43c7.6,7.2,16,13,26.2,15.7
				c7.9,2.2,15.5,1.8,22.5-3c1.4-0.9,2.8-1.8,4.2-2.8"/>
			<path class="st3" d="M233.4,451.1c1.5,0.3,2.9,0.1,3.7-1.3c1.2-1.9,0.1-3.7-0.5-5.5c-0.3-0.9-1.3-1.5-1.9-2.3
				c-1.1-1.2-2.6-1.7-3.9-0.9c-1.4,0.9-2.6,2.1-2.3,4.2c0.4,3,2.3,5.3,4.8,5.7"/>
			<path class="st3" d="M18.7,75.9c0.1,0.9,0.2,1.8,0.2,2.7c0,128.7,0,257.5,0,386.2c0,1,0.2,2,0.2,3"/>
			<path class="st3" d="M148.3,42c3.6-0.6,4.4-2.2,3-5.7c-0.5-1.2-1.1-2.5-2-3.2c-1.1-0.8-3-1.8-3.9-1.4c-1.6,0.7-2.9,2.4-2.6,4.6
				c0.4,2.5,1.8,4.3,3.8,5.7c0.3,0.2,1-0.1,1.8-0.3c-2.6-2-4.1-4.4-4.6-7.4"/>
			<path class="st3" d="M182.5,192.6c10.2,4.7,18.1,12,25,20.7c7,8.8,12.4,18.5,16,29.2c3.8,11.4,6,22.8,3,34.7
				c-0.1,0.4,0,0.8,0,1.2"/>
			<path class="st3" d="M136.3,402.4c-0.1,3.5-0.2,7-0.2,10.5c0,15,0,30,0,45c0,0.8-0.2,1.7-0.2,2.5"/>
			<path class="st3" d="M141.5,394.7c0,3.5,2.1,6,4.3,8.5c3.6-0.8,4.6-2.6,3.1-6c-0.6-1.3-1.7-2.4-2.7-3.5c-1-1.2-2.5-1.5-3.7-0.7
				c-1.4,1-3.1,2.3-2.2,4.4c0.8,1.9,2.1,3.5,3.2,5.3"/>
			<path class="st3" d="M138.5,284.8c-2.3,0.3-2,2.3-2.5,3.8c-0.1,0.5,0,1,0,1.5c0,35.2,0,70.4,0,105.7c0,2.7-0.3,5.6,1.6,7.7
				c1.4,1.6,3.5,2.7,5.4,3.8c12.5,7.4,24.9,14.7,37.4,22c13.9,8.1,28,16,41.9,24c3.7,2.1,7.3,4.4,11,6.4c1,0.5,2.4,1.3,3.5-0.2"/>
			<path class="st3" d="M173.5,173.1c-4.2-2.6-8.5-5.2-12.7-7.7c-5.7-3.4-11.5-6.7-17.2-10c-2.5-1.5-2.7-1.2-5,0.7
				c-2.1,1.7-2.5,3.6-2.5,6.1c0.1,35,0,69.9,0,104.9c0,2.7-0.2,5.6,2,7.7c0.5,0.4,0.9,0.9,1.5,1.2c6.9,4.1,13.8,8.2,20.7,12.3
				c5.9,3.5,11.8,7,17.7,10.5"/>
			<path class="st3" d="M244.4,155.6c8.4-6.9,14.6-15.5,19.2-25.2c4.4-9.3,7.3-19.2,8.4-29.5c1.1-9.8,1-19.6-0.8-29.5
				c-2.7-14.8-8.3-28.1-19.3-38.7c-6.3-6.1-13.9-10-22.7-11.2c-8.8-1.2-17,0.8-24.7,5c-3.1,1.7-6.5,3.3-8.9,5.8
				c-5.1,5.2-10.1,10.7-13.9,17.1c-6.1,10.2-10,21.2-11.8,32.8c-2.3,14.4-1.8,28.8,2.4,42.9c3.3,10.9,8.3,20.7,16.5,28.7
				c2.2,2.1,4.6,3.9,7,5.8"/>
			<path class="st3" d="M173.5,44.2c-3.9-2.4-7.8-4.9-11.7-7.2c-6-3.5-12-6.9-18-10.3c-1.1-0.6-2.4-2-3.7-1c-1.8,1.4-4.1,2.6-4,5.4
				c0,0.2,0,0.5,0,0.7c0,35.4,0,70.8,0,106.2c0,3.4,0.2,6.7,3.1,8.9c1.8,1.4,4,2.2,5.9,3.3c10.7,6.2,21.5,12.5,32.2,18.7
				c0.5,0.3,0.8,0.7,1.3,1"/>
			<path class="st3" d="M120.3,460.9c-5.8,3.4-11.6,6.8-17.5,10.2c-6.9,4-13.8,8-20.7,12c-7,4-14,8-21,12c-6.8,4-13.6,8-20.5,12
				c-6.9,4-13.8,8-20.7,12c-3.1,1.7-4.5,3.5-4,5.8c0.5,2.2,2.3,3.2,4,4.2c10.2,6,20.4,12,30.7,18c11.3,6.5,22.6,13,33.9,19.5
				c10,5.8,19.9,11.7,30,17.4c3.3,1.9,6.7,3.6,10.2,4.7c4,1.2,8.1,0.4,11.7-1.7c10.2-5.9,20.3-12,30.5-17.9
				c11.3-6.6,22.6-13,33.9-19.5c10-5.8,20-11.7,30-17.5c1.6-0.9,3.4-1.6,5-2.5c2.7-1.7,4.8-3.4,4.7-7.5c-0.3-14.8,0-29.6,0.1-44.5
				c0-5.8,0-11.7,0-17.5c0-0.8-0.2-1.7-0.2-2.5"/>
			<path class="st3" d="M183.7,392.4c0.9,3.5,3.3,6.1,5.5,8.7c5.7,6.9,12.7,11.9,21.7,13.7c4.1,0.8,8,0.7,12.3-0.1
				c16.7-3.2,26.4-14.4,34-28.3c4.9-9,7.7-18.5,8.8-28.5c0.7-6.4,0.4-13,0.1-19.5c-0.4-9.4-3.1-18.3-7.5-26.7
				c-4.6-8.9-10.9-16.2-20-20.7c-9.1-4.5-18.5-4.6-27.9-0.8c-11.9,4.9-20,13.9-25.9,25c-3.4,6.4-6,13.1-7.6,20.2
				c-2.3,9.9-2.9,19.7-2,29.8c0.7,8.1,2.9,15.8,6,23.2c0.9,2.1,2.5,3.4,4.2,4.8c4.2,3.1,8.5,6,13.8,6.7c6.3,0.9,11.6-2,14-8.5
				c2.7-7.4,1.5-14.7-0.8-21.7c-3.4-10.2-9.1-19-17.6-25.8c-4.1-3.2-8.6-5.4-13.7-6.2c-1.2-0.2-2.5,0.3-3.7,0.4"/>
		</g>
	</g>
</g>
</svg>
