<?xml version="1.0" encoding="utf-8"?>
<!-- Generator: Adobe Illustrator 27.6.1, SVG Export Plug-In . SVG Version: 6.00 Build 0)  -->
<svg version="1.0" id="Livello_1" xmlns="http://www.w3.org/2000/svg" xmlns:xlink="http://www.w3.org/1999/xlink" x="0px" y="0px"
	 viewBox="0 0 500 500" style="enable-background:new 0 0 500 500;" xml:space="preserve">
<style type="text/css">
	.st0{clip-path:url(#SVGID_00000081623000182311858580000000325516506977884323_);}
	.st1{fill:#B1FF42;}
</style>
<g>
	<g>
		<defs>
			<circle id="SVGID_1_" cx="250" cy="250" r="250"/>
		</defs>
		<clipPath id="SVGID_00000163795517925113910660000000713553753865088678_">
			<use xlink:href="#SVGID_1_"  style="overflow:visible;"/>
		</clipPath>
		<g style="clip-path:url(#SVGID_00000163795517925113910660000000713553753865088678_);">
			<path class="st1" d="M341.88,250c0,20.56,0.03,41.11-0.02,61.67c-0.01,7.15-0.8,7.91-7.91,7.97c-7.18,0.06-14.37,0.06-21.56,0
				c-7.88-0.06-8.96-1.11-8.97-9.07c-0.03-38.52-0.13-77.03,0.05-115.55c0.08-15.67-5.35-28.26-19.44-35.79
				c-22.9-12.24-53.18,1.54-54.6,31.23c-0.54,11.35-0.3,22.75-0.01,34.12c0.26,10.05,0.24,20.5-3.13,29.6
				c-6.43,17.4-15.99,33.24-31.26,44.89c-17.95,13.69-38.36,20.19-60.64,20.55c-25.34,0.42-50.7,0.14-76.04,0.11
				c-8.05-0.01-8.79-0.81-8.82-9.01c-0.03-7.38-0.04-14.77,0-22.15c0.04-7.82,0.61-8.39,8.66-8.39c24.35-0.02,48.7,0.02,73.05-0.02
				c35.69-0.06,59.16-23.38,59.58-59.2c0.19-15.74-0.95-31.56,2.28-47.12c5.49-26.4,31.72-50.4,58.08-55.85
				c33.39-6.9,65.11,9.64,79.86,35.23c6.68,11.58,10.74,24.03,10.84,37.49c0.15,19.76,0.04,39.51,0.04,59.27
				C341.91,250,341.89,250,341.88,250z"/>
			<path class="st1" d="M49.53,190.03c0-0.21,0-0.43,0-0.64c0.06-40.74,33.69-73.66,74.43-73.2c4.09,0.05,7.84,0.11,11.06,0.2
				c19.79,0.56,38.5,5.94,55.31,16.95c3.97,2.6,5.44,5.09,2.26,9.57c-5.81,8.2-9.88,17.32-12.2,27.12c-1.03,4.34-2.9,5.04-6,1.98
				c-12.75-12.58-28.24-17.17-45.83-16.46h0c-21.16,0.84-38.35,18.86-38.33,40.03c0.02,19.61-0.02,39.22-0.04,58.83
				c-0.01,8.76-0.41,9.13-9.11,9.14c-7.98,0.02-15.97-0.24-23.95,0.07c-5.75,0.22-7.76-2.14-7.72-7.75
				c0.17-21.95,0.07-43.9,0.07-65.85C49.5,190.03,49.51,190.03,49.53,190.03z"/>
			<path class="st1" d="M454.33,250.67c0,19.95,0.02,39.91-0.01,59.86c-0.01,8.38-0.73,9.08-9.33,9.14
				c-6.59,0.04-13.17,0.03-19.76-0.01c-8.54-0.06-9.27-0.74-9.28-9.2c-0.02-39.51,0.01-79.02-0.01-118.53
				c-0.01-14.73-6.63-26.02-19.52-32.59c-13.3-6.78-27.04-6.37-39.52,2.58c-4.47,3.21-6.26,2.61-8.15-2.3
				c-3.17-8.19-6.81-16.23-12.65-22.94c-2.86-3.29-2.18-5.72,1.14-7.81c16.28-10.26,33.74-14.56,53.04-11.53
				c20.68,3.24,36.83,13.55,49.19,30.02c9.75,12.99,14.55,27.88,14.78,44.05C454.52,211.16,454.31,230.92,454.33,250.67z"/>
		</g>
	</g>
	<g>
		<path class="st1" d="M154.72,390.35v-51.56h12.56v51.9c0,9.18,4.8,13.77,14.39,13.77h22.4v12.01h-22.03
			C164.56,416.48,154.72,406.94,154.72,390.35z"/>
		<path class="st1" d="M272.89,366.34v50.14h-12.56v-32.96h-41.12v-11.88h41.12v-5.19c0-9.3-7.62-16.94-17.23-16.94
			c-9.59,0-17.23,7.65-17.23,16.94v50.03h-12.55v-50.14c0-16,13.16-28.71,29.78-28.71S272.89,350.33,272.89,366.34z"/>
		<path class="st1" d="M285.23,416.48v-77.68h32.25c12.91,0,22.88,10.25,22.88,22.48c0,5.41-1.97,10.25-5.29,14.13
			c6.15,4,10.21,10.83,10.21,18.48c0,12.36-9.97,22.6-22.88,22.6H285.23z M291.29,383.52v-11.88h26.06
			c5.78,0,10.46-4.95,10.46-10.59c0-5.77-4.68-10.36-10.34-10.36h-19.69v53.91h24.61c5.66,0,10.34-4.59,10.34-10.36
			s-4.68-10.71-10.46-10.71H291.29z"/>
	</g>
</g>
</svg>
