<?xml version="1.0" encoding="utf-8"?>
<!-- Generator: Adobe Illustrator 27.6.1, SVG Export Plug-In . SVG Version: 6.00 Build 0)  -->
<svg version="1.1" id="Livello_1" xmlns="http://www.w3.org/2000/svg" xmlns:xlink="http://www.w3.org/1999/xlink" x="0px" y="0px"
	 viewBox="0 0 167.6 239.9" style="enable-background:new 0 0 167.6 239.9;" xml:space="preserve">
<g>
	<path d="M64.2,94.3c-0.8-4-1.5-7.4-2.2-10.8c-2-9.4-4-18.9-6.2-28.2c-1.9-8.2-3.8-16.3-5.2-24.6C48.9,20.7,56,9.2,65.4,5.4
		C78,0.2,93.1,7.6,97.4,21c2.5,8,3.9,16.3,5.8,24.5c2,8.7,3.8,17.3,5.7,26c0.1,0.3,0.2,0.6,0.9,0.7c0.3-2.5,0.6-5,0.7-7.5
		c0.5-9.7,1.9-19.3,2.9-29c0.6-6.3,0.5-12.8,2.6-18.9c3.4-9.9,13.2-16.9,23.6-16.7c9.8,0.2,19,7.6,22,17.5c1.5,4.9,0.9,9.7,0.4,14.6
		c-0.5,5.7-0.7,11.5-1.6,17.1c-1.2,8.4-1.4,16.9-2.6,25.3c-1,7.4-1.5,14.9-2.2,22.3c-0.3,3.3-0.6,6.6-0.9,9.9c-0.1,1.2,0,2.2,0.9,3
		c7.4,6.4,9.8,15,10.9,24.2c1.3,11.3,1.6,22.7,0,34c-2,14.6-6.2,28.6-14.8,40.8c-6.6,9.4-14.8,17.1-24.9,22.6
		c-13.4,7.2-27.7,10.3-43,8.7c-19.1-2.1-34.9-10.8-48.2-24.3c-7.3-7.5-12.8-16.3-17.4-25.7c-4.4-9-6.5-18.6-8.2-28.4
		c-0.2-0.9-0.2-2,0.1-2.7c1.2-2.5,0.1-4.4-1.2-6.4c-2.4-3.6-4.9-7.1-6.8-11c-6.5-13.4,3.3-30.1,18.1-31.6c2.2-0.2,2.7-1.1,2.8-3.1
		c0.4-17.6,18.7-27.2,33-19.1C58.9,89.3,61.5,91.3,64.2,94.3z M27.4,177.9c4.6,11.2,9.6,21.2,17.7,29.6c9.5,9.8,21,16.1,34.1,18.9
		c11.4,2.5,22.7,1.5,33.7-2.8c10.8-4.1,19.3-11,26.4-19.8c8.5-10.6,12.9-23.1,14.4-36.4c1.5-12.5,1.9-25.1-0.7-37.7
		c-1.9-9.4-8-14.4-17.5-15c-7.4-0.4-14.8,0.5-22.2,0c-8-0.6-15.9,0.3-23.9,0.1c-2.3-0.1-3.4,0.8-3.8,3c-1,5.1-0.5,10.1,3.1,14.1
		c5.8,6.5,13.3,9.1,21.9,8.5c2.2-0.2,4.4-0.8,6.6-0.8c2.8,0.1,5.4,2.7,5.8,5.4c0.3,2.8-1.5,5.9-4.3,6.9c-6,2.2-12.2,3.8-17.8,7.2
		c-2.1,1.2-3.4,3-3.8,5.3c-0.5,3.1-1,6.2-1.4,9.4c-0.5,3.9-3.2,6.3-6.6,5.9c-3.7-0.4-6.2-3.6-5.8-7.4c0.2-2.5,0.5-5,0.6-7.5
		c0.2-5.4,1.3-10.4,5.8-14c1-0.8,1.2-1.5-0.1-2.3c-1.7-1-3.5-2-5.2-3c-1-0.6-1.6-0.4-2.3,0.5c-4,5.7-9.4,9.1-16.4,9.7
		c-1.6,0.1-1.9,0.8-1.8,2.2c0.4,3.1,0,6.1-1,9.1c-3,8.5-10.6,15.3-20.5,15.4C37.3,182.5,32.5,180.9,27.4,177.9z M150.1,25.7
		c0-6.1-3.5-11.1-8.2-12.5c-6.5-2-13.6,2.9-14.6,10.2c-0.3,2.5-0.4,5-0.8,7.4c-1.5,8.1-1.5,16.3-2.5,24.5c-1,8.4-2,16.8-2.5,25.3
		c-0.3,5.2-0.9,10.4-1.7,15.6c-0.3,1.8,0.4,2.7,2.4,2.8c6,0.4,11.9,0.9,17.8,1.7c2.2,0.3,2.9-0.6,3-2.5c0.1-1.5,0.2-3,0.4-4.5
		c1-8,1.7-16,2.4-24c0.8-8.4,1.7-16.8,2.5-25.3C148.9,37.9,149.2,31.3,150.1,25.7z M63.3,29.9c0.2,2.9,1.5,7.3,2.4,11.8
		c2,9.9,4.6,19.7,6.6,29.6c2,9.5,4,19,6.3,28.5c0.3,1.5,0.6,2.3,2.4,1.3c5.9-3,12.1-4,18.6-3c1.3,0.2,1.9-0.1,1.6-1.6
		c-0.6-2.6-1-5.2-1.6-7.8c-2.3-10.6-4.7-21.2-7.1-31.9c-2.3-10.5-4.5-20.9-7-31.4c-1.4-6.1-7.4-9.7-13.7-8.9
		C67,17.3,63.4,22.3,63.3,29.9z M52.3,160.4c-0.1-2.1-0.4-3.5-1-5c-1.6-3.8-4.4-6.8-6.8-10c-4.9-6.7-9.6-13.6-14.4-20.4
		c-2-2.9-5.2-4.1-8.3-3.3c-9.7,2.5-11.3,10.6-7.5,16.6c4.7,7.3,9.5,14.6,14.3,21.9c1.7,2.7,3.4,5.4,6,7.3c3.5,2.6,7.2,4.1,11.6,2
		C50.3,167.6,51.7,164,52.3,160.4z M64.1,143.3c4.2,0.2,7-1.7,8.8-5.3c2.1-4.1,1.3-7.7-1.1-11.3c-1.9-2.9-3.9-5.8-5.9-8.6
		c-3.9-5.5-7.7-11-11.7-16.4c-3.6-4.8-10.4-6.3-14.6-3.3c-5.5,3.9-6.2,11.4-1.6,16.3c1.7,1.8,3.6,3.4,5,5.5
		c4,6.1,8.1,12.2,12.2,18.2C57.3,141.8,60.2,143.6,64.1,143.3z"/>
</g>
</svg>
